# xmcd
#
# Track frame offsets:
#	150
#	12797
#	38563
#	53759
#	70264
#	93739
#	111995
#	126605
#	148521
#	162226
#
# Disc length: 2311 seconds
#
# Revision: 0
# Processed by: cddbd v1.4PL0 Copyright (c) Steve Scherf et al.
# Submitted via: dBpowerAMP V4.0
#
DISCID=8a09050a
DTITLE=Marty Hall - Cool Blues
DYEAR=1999
DGENRE=Blues
TTITLE0=Love Me Or Leave Me
TTITLE1=Seduced By The Blues
TTITLE2=V.I.P.
TTITLE3=King Of The Road
TTITLE4=Got You On My Mind
TTITLE5=Gonna Make It Up
TTITLE6=No More Doggin'
TTITLE7=I Cry For You
TTITLE8=Signifying Monkey
TTITLE9=Lost Mind
EXTD=Interpret: Marty Hall  -  Album: Cool Blues\nLabel: Urban Groove - Year 1999/2000
EXTT0=
EXTT1=
EXTT2=
EXTT3=
EXTT4=
EXTT5=
EXTT6=
EXTT7=
EXTT8=
EXTT9=
PLAYORDER=
